<?xml version="1.0" encoding="utf-8"?>
<!-- Generator: Adobe Illustrator 18.1.1, SVG Export Plug-In . SVG Version: 6.00 Build 0)  -->
<svg version="1.1" id="att-movies" xmlns="http://www.w3.org/2000/svg" xmlns:xlink="http://www.w3.org/1999/xlink" x="0px" y="0px"
	 viewBox="47.7 14.1 20.5 20.5" enable-background="new 47.7 14.1 20.5 20.5" xml:space="preserve">
<g>
	<path d="M48.5,20.5c0.3,1.5,1.3,2.3,2.5,2.8c2.5,1.1,5.1,1.1,7.7,0.8c2-0.3,4-0.8,6-1.6c1.3-0.7,2.1-1.2,2.7-2.3
		c1.1,1.9,0.9,3.3-0.8,4.4C64.9,25.6,63,26,61,26c-3.1,0.1-6.1,0-9.1-0.9c-0.9-0.3-1.7-0.7-2.4-1.1C47.8,22.9,47.7,22.4,48.5,20.5z"
		/>
	<path d="M68.2,24.4c0.3,2.9-0.9,4.1-3.6,5.1c-2.5,0.8-5.2,0.9-7.9,0.8c-2.5-0.1-4.9-0.7-7.1-2.1c-1.1-0.7-2.1-1.5-1.9-3.1
		c1.7,2.7,4.4,3.5,7.3,3.6c4.1,0.1,8-0.8,11.5-2.8c0.3-0.1,0.5-0.4,0.8-0.7C67.8,24.8,67.9,24.5,68.2,24.4z"/>
	<path d="M51,16.9c-0.3,1.5,0.5,2.7,2.3,2.9c3.5,0.7,6.8,0.3,10-1.2c0.8-0.4,1.5-0.8,1.9-1.7c0.4,0.4,0.8,0.8,1.1,1.2
		c0.5,0.8,0.4,1.6-0.3,2.3c-0.8,0.8-1.9,1.2-2.9,1.3c-3.7,0.7-7.3,0.4-10.9-0.8c-0.8-0.3-1.5-0.7-2.1-1.3c-0.4-0.5-0.4-1.1,0-1.6
		c0.3-0.3,0.5-0.5,0.7-0.8C50.7,17,50.9,16.9,51,16.9z"/>
	<path d="M57.5,18.1c-1.5,0-2.9-0.1-4.4-0.7c-0.3-0.1-0.5-0.3-0.7-0.4c-0.7-0.4-0.7-0.9,0-1.3c3.1-2.1,7.9-2.1,10.9-0.1
		c0.7,0.4,0.7,0.8,0,1.2c-1.1,0.7-2.3,0.9-3.6,1.1C59.1,18.1,58.3,18.1,57.5,18.1z"/>
	<path d="M67.1,29c-0.8,1.9-2.1,2.8-3.9,3.3c-3.7,1.1-7.5,0.9-11.2-0.5c-1.1-0.4-2-1.1-2.7-2c2.7,2,5.7,2.4,8.9,2.1
		C61.4,31.7,64.5,31.1,67.1,29z"/>
	<path d="M53.4,33.3c2.1,0.5,4.4,0.8,6.7,0.5c1.1-0.1,2.1-0.5,3.2-0.8c0,0,0.1,0.1,0,0.1c-3.3,1.9-6.7,1.9-10.1,0.3
		C53.1,33.2,53.3,33.2,53.4,33.3z"/>
</g>
</svg>
