<?xml version="1.0" encoding="utf-8"?>
<!-- Generator: Adobe Illustrator 18.1.1, SVG Export Plug-In . SVG Version: 6.00 Build 0)  -->
<svg version="1.1" id="att-movies" xmlns="http://www.w3.org/2000/svg" xmlns:xlink="http://www.w3.org/1999/xlink" x="0px" y="0px"
	 viewBox="0 0 128 128" enable-background="new 0 0 128 128" xml:space="preserve">
<g>
	<path d="M95.9,16.9c0,0,0,0.3,0,0.6c0,0.2,0,0.3,0,0.5c0,30.8,0,92.1,0,92.1H31.9c0,0,0-53.8,0-80.5c0-0.1,0-0.3,0-0.5
		c4.2,2.3,8.2,0.9,10.4-1.4c2.1-2.2,3.5-6.4,0.7-10.7C43.2,16.9,95.8,16.9,95.9,16.9"/>
	<path d="M29.2,18.9c0.2,1.1,1,1.7,1.9,2.1c1.9,0.8,3.8,0.8,5.8,0.6c1.5-0.2,3-0.6,4.5-1.2c1-0.5,1.6-0.9,2-1.7
		c0.8,1.4,0.7,2.5-0.6,3.3c-1.3,0.7-2.7,1-4.2,1c-2.3,0.1-4.6,0-6.8-0.7c-0.7-0.2-1.3-0.5-1.8-0.8C28.7,20.7,28.6,20.3,29.2,18.9z"
		/>
	<path d="M44,21.8c0.2,2.2-0.7,3.1-2.7,3.8c-1.9,0.6-3.9,0.7-5.9,0.6c-1.9-0.1-3.7-0.5-5.3-1.6c-0.8-0.5-1.6-1.1-1.4-2.3
		c1.3,2,3.3,2.6,5.5,2.7c3.1,0.1,6-0.6,8.6-2.1c0.2-0.1,0.4-0.3,0.6-0.5C43.7,22.1,43.8,21.9,44,21.8z"/>
	<path d="M31.1,16.2c-0.2,1.1,0.4,2,1.7,2.2c2.6,0.5,5.1,0.2,7.5-0.9c0.6-0.3,1.1-0.6,1.4-1.3c0.3,0.3,0.6,0.6,0.8,0.9
		c0.4,0.6,0.3,1.2-0.2,1.7c-0.6,0.6-1.4,0.9-2.2,1c-2.8,0.5-5.5,0.3-8.2-0.6c-0.6-0.2-1.1-0.5-1.6-1C30,17.8,30,17.4,30.3,17
		c0.2-0.2,0.4-0.4,0.5-0.6C30.9,16.3,31,16.2,31.1,16.2z"/>
	<path d="M36,17.1c-1.1,0-2.2-0.1-3.3-0.5c-0.2-0.1-0.4-0.2-0.5-0.3c-0.5-0.3-0.5-0.7,0-1c2.3-1.6,5.9-1.6,8.2-0.1
		c0.5,0.3,0.5,0.6,0,0.9c-0.8,0.5-1.7,0.7-2.7,0.8C37.2,17.1,36.6,17.1,36,17.1z"/>
	<path d="M43.2,25.3c-0.6,1.4-1.6,2.1-2.9,2.5c-2.8,0.8-5.6,0.7-8.4-0.4c-0.8-0.3-1.5-0.8-2-1.5c2,1.5,4.3,1.8,6.7,1.6
		C38.9,27.3,41.2,26.8,43.2,25.3z"/>
	<path d="M32.9,28.5c1.6,0.4,3.3,0.6,5,0.4c0.8-0.1,1.6-0.4,2.4-0.6c0,0,0.1,0.1,0,0.1c-2.5,1.4-5,1.4-7.6,0.2
		C32.7,28.4,32.8,28.4,32.9,28.5z"/>
</g>
</svg>
