<?xml version="1.0" encoding="utf-8"?>
<!-- Generator: Adobe Illustrator 18.1.1, SVG Export Plug-In . SVG Version: 6.00 Build 0)  -->
<svg version="1.1" id="Layer_1" xmlns="http://www.w3.org/2000/svg" xmlns:xlink="http://www.w3.org/1999/xlink" x="0px" y="0px"
	 viewBox="0 0 128 128" enable-background="new 0 0 128 128" xml:space="preserve">
<g display="none">
	
		<image display="inline" overflow="visible" width="410" height="434" id="J1m0KD_1_" xlink:href="44CF21AA31A9A862.jpg"  transform="matrix(0.2873 0 0 0.2873 5.1137 1.6667)">
	</image>
</g>
<path fill="#E71611" d="M123.5,77.2c0,28.3-26.4,49.2-60.2,49.2S3,103.6,3,75.2S32.4,26,66.2,26S123.5,48.9,123.5,77.2z"/>
<path fill="#619B3B" d="M58.4,41.4c0,0,0.8,1.1,2.4,2.4s9,4.8,11.6,8.1s5.1,7.4,5.8,9.1s1.5,3.6,1.8,5.2s0.8,6.2,0.8,6.2
	s0.8-2,0.8-4.1s-0.2-6.9-0.1-7.6s0.4-6.2-0.5-11.5S77.8,42,77,41s-4.8-3.9-4.8-3.9s4.6-0.4,8.9-0.2S90.5,38,92,38.4
	s10.4,3.8,12.8,5.1s6.4,3.6,6.4,3.6s-4-5.8-6.4-7.4s-5-2.9-6.2-3.8s-5.2-3.8-7.1-4.4s-7.8-3-9.6-3.2s-5.6-0.5-5.6-0.5
	s0.6-0.6,0.9-1.5s0.5-3.5-0.5-5.8s-2.8-1.5-3.8-2.4s-2-2.1-2-2.1l2,4c0,0,0.6,0.5,0.6,1.5s-0.2,1.9-1.1,1.9s-2.8-2-4-3.5
	s-2-1.9-1.9-3.5s0.8-2.9,1.5-3.2s2.1-1,2.1-1s-2.2-0.5-3.9,0.4s-4,2.1-4.8,2.9s-1.2,2.8-2.4,3.8s-5,0.8-7.1-0.1s-4.2-2.2-5-2.5
	s-3.9-3-3.9-3l1.6,3.2c0,0,1.4,1.4,1.6,2s0.6,1,0.4,1.4s-2,0-3.4,0.1S40,20.8,39,21.5s-3,2.8-4,3.2s-3.6,1.2-5.5,0.6s-5-1.8-5.9-2.8
	s5.1,5.4,5.1,5.4s2,2.4,4.1,2.4s3.6-0.1,5-0.5s2.5-0.8,2.5-0.8l-2.8,1.5c0,0-3.4,0.8-4.4,1.2s-3.6,2.1-4.6,2.9s-7,5.5-7.6,6.4
	s-4.6,5.2-4.6,5.2s9.2-4.4,12.9-5.8s5.5-2.6,8.5-2.5s5.1,1,6.6,3.2s2.4,4,1.8,5.6s-1.5,3-3.5,3.5s-7.9,2.1-9.9,2.5s-5.2,1.1-5.2,1.1
	l4.4,0.6c0,0,6.6,0.9,9.9,1s7.1-0.2,10.1-2.6s4.6-5.9,5.2-8.5S58.4,41.4,58.4,41.4z"/>
<path fill="#74B749" d="M56.4,2c0,0,1.1,0,3.4,0.1s2.4,0.5,2.5,1.8s0.1,3.4,0,4.1s-1.5,5.1-1.5,5.1s-0.8,3.6-0.1,5.4s1,4.5,1,4.5
	s0.9,1.6,0.4,2.6s-2.8,3.5-3.9,3.6s-3.5,0.5-4.9-0.5s-1.6-2.1-1.5-3.1S54,18,54.6,14.9s1.2-7.9,1.6-9.5S56.4,2,56.4,2z"/>
<path fill="#45702A" d="M66.4,19.4L61.6,23l-1-4.5c0,0-0.4-3.4,0-5.4S62,9.2,62,8.5S62,4,62,4l-0.5-1.4l-0.8-0.2
	c0,0-0.3,3.5-0.7,4.8S58.5,10.6,58,13s-0.6,3.2-0.7,8.1s-0.6,6.2-0.6,6.2s-0.7,1.1-1.5,1.2s-2.1,0.2-2.6-0.4s-1-2-1-2l0.8-3.4
	L50.8,24H46c0,0,3.5,2.4,3.6,2.9s0.2,1.6-0.1,2.2s-3.4,4.1-3.9,4.8S44,35.2,44,35.2l3-1c0,0,1.8-1.2,3.2-1.2s4.8,0,4.8,0
	s3.6,1.6,4.6,3s2.2,3.4,2.2,3.4s1.2-4.2,1.2-5.8S63,29.8,63,29.8l2.2-0.4c0,0,5.1,0.5,6.5,1.2s2.9,1.7,2.9,1.7l-1.9-3
	c0,0-4-2.8-5.2-3.3s-3.1-1.8-3.1-1.8l1.4-2.9L66.4,19.4z"/>
</svg>
